PathFileType	4	(X/Y/Z)	Apose_0-50.trc
DataRate	CameraRate	NumFrames	NumMarkers	Units	OrigDataRate	OrigDataStartFrame	OrigNumFrames
30	30	9	22	m	30	40	50
Frame#	Time	Hip			RHip			RKnee			RAnkle			RBigToe			RSmallToe			RHeel			LHip			LKnee			LAnkle			LBigToe			LSmallToe			LHeel			Neck			Head			Nose			RShoulder			RElbow			RWrist			LShoulder			LElbow			LWrist		
		X1	Y1	Z1	X2	Y2	Z2	X3	Y3	Z3	X4	Y4	Z4	X5	Y5	Z5	X6	Y6	Z6	X7	Y7	Z7	X8	Y8	Z8	X9	Y9	Z9	X10	Y10	Z10	X11	Y11	Z11	X12	Y12	Z12	X13	Y13	Z13	X14	Y14	Z14	X15	Y15	Z15	X16	Y16	Z16	X17	Y17	Z17	X18	Y18	Z18	X19	Y19	Z19	X20	Y20	Z20	X21	Y21	Z21	X22	Y22	Z22
41	1.3666666666666667	0.048622063551697674	0.9215503612873353	0.3584245970249336	0.04142828442931746	0.8961186554342508	0.47328349988717977	0.006308776503276084	0.506707386449558	0.49817909471800853	-0.009406660029231212	0.11158298837486029	0.5147370009044056	0.20867782859326964	0.040947329497350415	0.5609600419790396	0.1504097692605208	0.03160284601933614	0.6143715930588222	-0.0560851419492249	0.028120000510690975	0.5045199678058735	0.04106817965542308	0.8927463768699709	0.24642116394600416	0.025447690898239575	0.5092888726755317	0.22051217908526552	0.0009503554400438884	0.11792582134398064	0.20971538517554422	0.21018954249489	0.037997120456073855	0.1911128179153783	0.16209223973327966	0.0369526607594306	0.13129913052254236	-0.03631391076861709	0.04121267472019802	0.2211477482965524	0.07173384404335535	1.579381538708014	0.34968038434242776	0.19325048117696683	1.8053086679266717	0.3330329872148877	0.27883659798240384	1.647373172905807	0.3632446272183437	0.03586504567204721	1.4933597180101048	0.5367918714662279	0.08055977487326668	1.2353935168365349	0.7169664207838895	0.14187906716203474	1.0375428804639317	0.8891389945938649	0.018964135587100986	1.4758068809063634	0.14878554416480907	0.027779129403988398	1.2266073758378009	0.005036333910381868	0.0833301881939704	1.017306471015887	-0.1454322950969658
42	1.4	0.049606790019981334	0.9216714123823427	0.3590114209255669	0.04201201192424774	0.8960055104310102	0.47405130452042865	0.006974863595929885	0.5067189995686697	0.49850384030611056	-0.008877302324298262	0.10922202209126887	0.5158032998368733	0.20913316963301587	0.04053986153059505	0.5607705514427722	0.15041357049530737	0.03056508445979063	0.614664893117057	-0.05550297124217349	0.027857449107312655	0.5042010135714278	0.04113233913273659	0.8926552170467853	0.247126019759762	0.02366581870056173	0.5092811625204219	0.22108744664191296	0.0011530335254264748	0.11798864887852942	0.20978190920904793	0.21040317519584645	0.0378627522168875	0.1908620494204902	0.16228648256626366	0.03664021398979431	0.13138417556406617	-0.03582575082436783	0.040750689759927454	0.22168428794012077	0.07173053434936523	1.5824213061860262	0.3499452011878835	0.18733713078917963	1.8084674274358952	0.3330921552332904	0.2751483268395586	1.6512231403371456	0.3628170608800712	0.03695274290847382	1.493642889772952	0.5363915352985676	0.08177368801929505	1.2361832432188689	0.715758669248771	0.14755910064636302	1.0348836664497028	0.8873098852761805	0.01951048533404298	1.475908179674771	0.1475762299347764	0.028327328308575032	1.2265394255202215	0.005328999149699251	0.08361766527776898	1.0168197044534923	-0.14533763674335126
43	1.4333333333333331	0.05055909122380669	0.921676352481465	0.35952927318093647	0.04275962877899023	0.8959439410388315	0.4747968316444085	0.007693638930825161	0.5066707257022272	0.49895378703375665	-0.008349823071789029	0.1062162556923659	0.5170063740061261	0.20955192225870953	0.040287854665055294	0.5607595109688829	0.14972396673040353	0.029380722339982696	0.615922853463405	-0.05487514286607687	0.027797713196281677	0.5036509851611801	0.04150522476517414	0.8924042276790309	0.24778355270419966	0.021461654719412037	0.5090940371734267	0.2219535310909657	0.0014903283656876032	0.118126458589091	0.20978893847659902	0.21049965470439655	0.03768380891745342	0.19075878420091266	0.16271401056654003	0.036524675551242766	0.13153738686478292	-0.03527149550298931	0.04044330434180209	0.222099434973345	0.07091819311711951	1.5840325497125995	0.3497570585930789	0.18236512012554898	1.8108678519117103	0.3326139869496956	0.2717031211478317	1.6543119406223785	0.3615339677601919	0.03780367073435395	1.4936832398812812	0.5362112516844486	0.08356123141935748	1.2367000600652711	0.7149901349046317	0.15403463336935388	1.0318182923414156	0.8851672715557544	0.019572195990917165	1.4759931004350595	0.1465809980561203	0.02873906312463087	1.2263593106734416	0.00545683124157776	0.08416266534307783	1.0161802198717553	-0.14535315385448552
44	1.4666666666666666	0.051432461756798616	0.9215494201778555	0.3598938765171171	0.043575139837199205	0.8960329610256875	0.47549495129312713	0.008411351101110796	0.5066375885725551	0.49943126975115293	-0.007953676372236712	0.103495251176645	0.5180233330478384	0.21001392161265037	0.040356042040867623	0.5610745449240545	0.1481643438736867	0.0282501501799308	0.6183515633018789	-0.05422856308525152	0.027987910615110675	0.5030402046834628	0.0422712532927598	0.8921159517864442	0.24833874382382648	0.019650603896003472	0.5088247125261062	0.2228767480165901	0.001915980210314268	0.11833966546869087	0.20976972088421048	0.21040934973484823	0.037503408638678515	0.19083438840447423	0.1632051045382705	0.03666535629077171	0.13178055974890202	-0.03462203385879538	0.04037671152104125	0.22234028630085123	0.06954806272338386	1.5840374002451558	0.3491700337773242	0.17864865407169545	1.8127814677361633	0.33234140588889594	0.2687151795422031	1.656836741450489	0.3599213677523371	0.03838776386629527	1.4933777422226455	0.5362890136672144	0.08566608390092656	1.2371437184935714	0.7146873682877918	0.15995314154031656	1.0292208224611177	0.8831286142899869	0.01909391572605074	1.4759978230925508	0.1460322975994368	0.028911753125303395	1.2260868904035644	0.005317904735895752	0.08481408737554273	1.0155513417294677	-0.1455196698677604
45	1.5	0.05222154131408907	0.9213031453642406	0.3600369336439195	0.04440596278503601	0.8961848235229548	0.47603212012178975	0.009075290020236616	0.5066611015465996	0.49985652783999596	-0.0077817750565982455	0.10165048172300775	0.518700186214071	0.2105647196554406	0.04073435242151303	0.5616218274813384	0.14599874869259274	0.027347030584849424	0.6215662534290773	-0.053630364518626725	0.02840228754600781	0.5025138041223355	0.04332907324002751	0.8918283010720105	0.24871215739147942	0.019080746540358528	0.5083542493024658	0.22348712825547112	0.002293658123854251	0.11846856555342035	0.20968012935000208	0.21012868506526775	0.03735141501317435	0.19101185096595	0.16355383672776855	0.03696617557339083	0.13207135540923146	-0.0338728975569985	0.040590629840946704	0.2224487448179177	0.06804455746593192	1.583016091378613	0.3483833801304958	0.17622904471437517	1.814381897117962	0.3326174530292857	0.26622292179296186	1.6589669188169367	0.3583291581774829	0.038751589097197954	1.4927645371180611	0.5365679471698751	0.08761701065681025	1.2375484653475792	0.7147678167406648	0.1641138695488598	1.0277772392350955	0.8815654896227062	0.018138558251373903	1.475903052268847	0.14599582964053306	0.0288533139710308	1.2257498081829012	0.004845963688086744	0.08547293270426534	1.0151013739902566	-0.1458231882819383
46	1.5333333333333334	0.052938873776372616	0.9209638189569276	0.35993823663425206	0.04525084065570795	0.896110402065528	0.4762277798505908	0.009585882175872834	0.5066980065813182	0.5001685901076903	-0.007735430529710317	0.10075930178818053	0.5190948963051769	0.21112290316402385	0.04121624924571617	0.5619313379754187	0.14413243917361238	0.026826568890735522	0.6243649410973212	-0.053178366395407864	0.02890501585283968	0.5020932775272137	0.04446735287978943	0.8914469226319247	0.24881104961547384	0.020135069589014003	0.5073034274199301	0.22350015598761555	0.0023484741090578727	0.11824612614447826	0.20935202113755683	0.20969093044708315	0.03722876577457056	0.19108683798577816	0.16364944966555672	0.03717772782684034	0.13227563509568366	-0.03306985527446449	0.041051385423515815	0.22255599432241455	0.06661829457297201	1.581466776624231	0.34753951319569654	0.17429407226262522	1.815568690956703	0.3328922191715948	0.26421887173243425	1.660754468684286	0.3569422716072458	0.03896608587583529	1.491987549857079	0.5369812329223717	0.08916476687171682	1.2376180080977268	0.7151519977224784	0.16575723650000607	1.0277566478140363	0.8807180196967447	0.016900227512320176	1.4757367965690453	0.14639433469265803	0.02873623318443889	1.2254472150285807	0.004129490107352197	0.08614117159656527	1.01494210876469	-0.14621842447776132
47	1.5666666666666669	0.05353665154836311	0.9205620132970689	0.3596355343814929	0.04610781270874451	0.895434244818817	0.47587022261725676	0.009799947254985081	0.5066802987880684	0.5002526896069414	-0.0075482255246210345	0.10065367499367985	0.5193200690607099	0.21152900233670177	0.04152582043336912	0.5614136043623712	0.14378091939064613	0.0268649053252376	0.6251881420795291	-0.05290546772682676	0.029352581052465406	0.5016976241329241	0.04546953172129842	0.8907887487200739	0.24855073955295526	0.02281027150759993	0.5051691903860769	0.22282379203862138	0.0017274914677425802	0.11741572083079979	0.20856732250243742	0.20915066871545224	0.03713509727557343	0.19081073593085415	0.16349812277157746	0.03700541258758029	0.1322469979363142	-0.0322959233427376	0.04163104750943226	0.2228190884381305	0.06518903508308647	1.5796493115626282	0.34674402038227103	0.1717404217955524	1.8160769789013225	0.33232392720822845	0.2627054494633801	1.6621320714294214	0.3558011612944382	0.03909436300848769	1.4911778098263182	0.537545773001503	0.09029317984294347	1.236792792383251	0.7158500967773836	0.1645339495407694	1.029175538001043	0.8806506879651645	0.015614348507317785	1.4755609768420144	0.14714419695255523	0.028788642498461508	1.225354227185337	0.0034073064792989618	0.08687296424474104	1.015094584906454	-0.14663555086535368
48	1.6	0.05392935112985487	0.9201496799729274	0.35921208176402547	0.046941429304075286	0.8939094181546083	0.47482488711034787	0.009618007312819919	0.5065729470220227	0.4999426166272598	-0.006987473428692152	0.10116270702039516	0.5194555344690424	0.21165842648890662	0.041510222435093655	0.559768107365112	0.14566480262540085	0.027588086966836397	0.6231174654965942	-0.05274610437990615	0.029699827449564998	0.5012383134678908	0.04620615685405979	0.8897081545458634	0.24788587108899257	0.02683245664744342	0.5016202433053226	0.22155901220737004	0.00020262378862150426	0.11585430737247933	0.20715932933780126	0.20862113423091005	0.03710493066011513	0.19003880026078582	0.16316687775203195	0.03626281341680941	0.13193056558257107	-0.03163887746646697	0.04216349801633781	0.2233249563266164	0.06362616468550472	1.5779417078189235	0.34614761267776323	0.16816416340818835	1.8157438834012711	0.33075302535576323	0.26161542837321083	1.6630294125428846	0.35484538222999	0.03919979629673263	1.4904040626314605	0.5383335957160754	0.09106424625313261	1.2346519559529354	0.7169250793370756	0.16056824936868944	1.0319306925404927	0.8812189164089869	0.014467081106374131	1.4754654006447812	0.1482214810064646	0.029145286863227298	1.2256393176375688	0.0029264460206938907	0.08770224013016131	1.0154752033405232	-0.14700369533982324
49	1.6333333333333333	0.05410847300097654	0.919781642392287	0.3587602613594604	0.04771900147779961	0.8915940657496694	0.4731671963169327	0.009066462544881318	0.5063746245640192	0.4991701107461914	-0.006023726455904557	0.10212631952613674	0.5195591169808839	0.21148331065072293	0.0412128184597582	0.5571367992585282	0.14951803861032867	0.028938565269150514	0.6184607883460531	-0.052626806314345694	0.02997746285167652	0.5006912180679678	0.04668381407050855	0.8882195818477716	0.24684979307808147	0.031693737497801175	0.49681327305516887	0.2199314484886861	-0.002138479670232092	0.1136919318021152	0.20513284550626404	0.20826649800511832	0.0372008202696361	0.18881440222471085	0.1627553191389897	0.034976157989064234	0.13140113800172679	-0.03113811630604983	0.042584852217721646	0.22405781427595037	0.06191254733389574	1.5766654553836221	0.34583779991891533	0.16394501888620416	1.8146793755315371	0.3287213688760928	0.2607508078085416	1.6635032185853162	0.3539750712728502	0.03934375728916154	1.4897010752204949	0.5393577739028815	0.09157166841298514	1.2313127084333255	0.7183504244901411	0.1545531394334507	1.0357353212011569	0.8821489205343883	0.013532618602581035	1.475518181301837	0.14959779003717305	0.02977358968767865	1.2263492835338756	0.002787371934260461	0.08859715222439496	1.015940478952278	-0.14730325168148303
